<?xml version="1.0" encoding="UTF-8"?>
<svg width="170px" height="304px" viewBox="0 0 170 304" version="1.1" xmlns="http://www.w3.org/2000/svg" xmlns:xlink="http://www.w3.org/1999/xlink">
    <!-- Generator: Sketch 55.2 (78181) - https://sketchapp.com -->
    <title>爸带娃</title>
    <desc>Created with Sketch.</desc>
    <g id="页面1" stroke="none" stroke-width="1" fill="none" fill-rule="evenodd">
        <g id="画板" transform="translate(-593.000000, -1131.000000)">
            <g id="爸带娃" transform="translate(585.000000, 1114.000000)">
                <g id="编组-18" transform="translate(97.000000, 283.000000)">
                    <path d="M16.9123663,3.66254826 C11.2022666,14.3831098 7.53379631,21.1364547 5.90695547,23.9225829 C4.28011463,26.7087112 6.2258865,28.8065246 11.7442711,30.2160232 L30.8464841,30.2160232 C33.7178386,26.0203963 33.7178386,23.9225829 30.8464841,23.9225829 C27.9751295,23.9225829 24.08486,23.9225829 19.1756757,23.9225829 C25.9422384,14.8222681 30.1197326,8.06892316 31.7081583,3.66254826 C33.2965841,-0.743826635 28.3646534,-0.743826635 16.9123663,3.66254826 Z" id="路径-56备份" fill="#FFE1CD"></path>
                    <polygon id="路径-57备份" fill="#D8F2FF" points="2.02764888e-13 33.8785714 33 33.8785714 33 30.2160232 2.02764888e-13 30.2160232"></polygon>
                    <path d="M13.3783784,31.1316602 C14.942216,22.5857143 18.008012,18.3127413 22.5757663,18.3127413 C29.4273978,18.3127413 35.0827889,21.8525827 32.2550933,29.8687718 C26.2111572,30.7106974 19.9189189,31.1316602 13.3783784,31.1316602 Z" id="路径-58备份" fill="#D8F2FF"></path>
                </g>
                <path d="M55.0969415,289.30686 C55.5867345,297.932717 55.0200246,303.639586 53.3968116,306.427467 C50.9619922,310.609288 49.9403712,314.402607 52.4607373,316.235033 C54.1409814,317.456651 57.7623843,318.253533 63.324946,318.62568 C67.3457604,320.458107 70.9955505,320.458107 74.2743166,318.62568 C79.1924656,315.877041 79.1072984,309.463549 74.8098713,309.463549 C71.9449199,309.463549 68.6441494,308.025737 64.9075598,305.150114 C66.6241288,298.997092 68.274855,293.716007 69.8597386,289.30686 C71.4446221,284.897713 66.5236898,284.897713 55.0969415,289.30686 Z" id="路径-56备份" fill="#FFE1CD"></path>
                <path d="M93.270292,96.5854255 C95.3511643,92.5398206 96.391355,90.0424134 96.3908643,89.0932039 C96.3901281,87.6693896 90.8927594,85.529181 88.1726909,83.8717342 C85.4526225,82.2142874 83.1334863,79.0013233 89.7436337,80.0486887 C92.8832622,80.546157 95.013394,82.1750412 98.0535125,81.9257995 C100.777395,81.7024842 99.6643467,77.331242 100.636142,77.6093463 C102.007084,78.0016769 102.828974,80.7229852 103.101812,85.7732713 L99.749349,96.58878 L93.270292,96.5854255 Z" id="路径-60备份" fill="#FFD3CE" transform="translate(94.277793, 87.092702) scale(-1, 1) rotate(18.000000) translate(-94.277793, -87.092702) "></path>
                <path d="M62.1272059,210 C43.8427528,233.292354 41.1059972,248.959021 53.916939,257 C50.5749434,273.877089 54.9909076,284.11619 53.1207064,301.92414 C51.9262898,305.411711 68.0755085,303.866327 68.4197938,301.92414 C69.7265785,294.552289 79.4682355,254.137099 81.4911798,257 C82.405692,258.294231 108.93935,263.157056 130.576602,257 C123.356967,262.251157 115.589564,274.653358 107.274391,294.206602 C112.580347,294.206602 117.946017,294.206602 123.371402,294.206602 C127.681096,294.206602 163,264.160738 163,252.99746 C163,243.885476 158.054691,238.933387 151.014315,236.245688 C133.195485,229.44326 113.820236,229.44326 103.506242,228.622563 C100.804293,216.619076 103.413811,210 94.2134894,210 C86.2769683,210 75.5815404,210 62.1272059,210 Z" id="路径-55" fill="#33308E"></path>
                <path d="M98.8689737,86.3461788 C82.8762448,110.706893 78.8834374,134.430187 86.8905515,157.516061 C94.8976656,180.601934 101.550282,180.816206 106.848402,158.158875 C95.6402077,139.274889 96.5290508,118.640623 109.514931,96.2560786 C109.51539,92.5015247 105.966738,89.1982247 98.8689737,86.3461788 Z" id="路径-59备份" fill="#FFA739" transform="translate(96.199169, 130.669427) scale(-1, 1) rotate(-4.000000) translate(-96.199169, -130.669427) "></path>
                <path d="M74.1166792,147.225929 C81.3510426,147.867221 83.6067853,138.514806 83.6089422,129.657025 C83.6110799,120.799244 77.4879176,117.037161 70.3752348,117.038878 C63.2625521,117.040615 54.4428382,127.618803 58.8119976,134.661496 C60.6147247,137.56733 60.3285481,135.260912 61.1645227,139.69049 C61.8562299,143.355638 61.3862754,146.699541 60.9205334,147.794135 C60.1855722,153.023661 69.7048339,146.834839 74.1166792,147.225929 Z" id="椭圆形" fill="#FFEEE3" transform="translate(70.627954, 133.471293) rotate(-8.000000) translate(-70.627954, -133.471293) "></path>
                <path d="M70.3293041,147.448259 C68.6085424,148.305335 61.8570116,142.687095 59.8038506,143.195987 C54.0650749,144.618387 51.6703261,151.181344 49.7407914,153.344248 C47.5364024,155.81525 57.2020621,178.049143 57.7535301,194.399209 C58.1807307,207.064962 49.2402933,214.366833 49.7362714,217.811267 C57.6111703,222.777052 69.7304647,224.932176 79.8316512,225.899937 C86.9635269,226.583218 91.7858334,222.698142 95.0605595,221.238085 C98.2926011,212.938904 107.318451,181.626021 108.584796,163.826018 C109.350465,153.063634 99.8918711,144.303023 99.1521459,140.385112 C91.6294422,141.569831 85.4861312,152.466318 82.2885,151.10213 C80.3593714,150.279116 72.3273729,146.453062 70.3293041,147.448259 Z" id="路径-33" fill="#FFCB77" transform="translate(79.021659, 183.182453) rotate(-8.000000) translate(-79.021659, -183.182453) "></path>
                <path d="M47.3171234,94 C48.7329531,91.0607419 49.9881706,88.5831709 51.0827761,86.5672871 C52.7246843,83.5434613 46.8845185,79.7464098 44.0391979,78.8657624 C41.1938773,77.985115 38.9345556,74.0860617 44.0391979,75.1977228 C49.1438403,76.3093839 52.7637787,79.0634934 54.8710141,78.8657624 C56.8978334,78.6755773 54.3516985,75.3007268 56.060567,75.1977228 C58.2969968,75.0629195 59.1634055,78.1252782 59.6454644,78.8657624 C60.3641676,79.9697529 59.9901717,82.5369278 58.5234767,86.5672871 L54.8710141,94 L47.3171234,94 Z" id="路径-60" fill="#FFD3CE"></path>
                <path d="M53.9276004,86.8042973 C35.6982412,116.881614 32.0096268,144.413991 42.8617572,169.401428 C53.7138876,194.388864 60.0595064,190.793122 61.8986136,158.614201 C50.6923998,139.732045 51.5837421,119.098199 64.5726403,96.7126642 C64.5735504,92.958206 61.0252037,89.655417 53.9276004,86.8042973 Z" id="路径-59" fill="#FFCB77" transform="translate(50.679990, 136.294376) rotate(-8.000000) translate(-50.679990, -136.294376) "></path>
                <g id="编组-14" transform="translate(75.000000, 65.500000) rotate(105.000000) translate(-75.000000, -65.500000) translate(25.000000, 2.000000)">
                    <path d="M44.1716716,9.9 C34.5848333,9.9 36.032524,11.9490697 33.9777262,21.3664655 C32.4109813,31.146478 37.5032012,35.1 44.9467863,35.1 C52.3903713,35.1 57.0889281,29.4073096 57.0889281,21.3664655 C57.0889281,13.3256214 53.75851,9.9 44.1716716,9.9 Z" id="路径-61" fill="#FFEEE3"></path>
                    <g id="编组-19" transform="translate(79.192743, 94.168368)">
                        <path d="M3.43029632,4.68552206 C5.2320576,5.46408418 6.44586836,6.31396785 7.07172857,7.23517308 C8.01051889,8.61698091 8.48488769,11.4519516 7.90597941,12.9100647 C7.32707112,14.3681779 8.23130356,15.4214958 8.74234724,15.4266907 C9.25339092,15.4318808 12.6339262,7.10073956 12.0652658,5.93410997 C11.4966053,4.76748038 10.2920922,5.48456989 9.07217594,4.51710673 C8.2588984,3.8721313 6.99580626,2.81420819 5.28289952,1.3433374 L3.43029632,4.68552206 Z" id="路径-68备份" fill="#FFD3CE" transform="translate(7.779896, 8.385014) rotate(-29.000000) translate(-7.779896, -8.385014) "></path>
                        <path d="M10.222201,15.2707182 C10.2194976,15.0131839 11.8920696,10.7785422 15.2399169,2.56679308 L16.6287996,3.03253536 L11.6017887,15.6511881 C10.6847713,15.6550757 10.2249087,15.5282524 10.222201,15.2707182 Z" id="路径-69备份" fill="#FFA739" transform="translate(13.425500, 9.108991) rotate(-30.000000) translate(-13.425500, -9.108991) "></path>
                        <path d="M12.7458809,16.3276601 C10.6442645,15.2707497 9.58732622,14.1587839 9.57506597,12.9917627 C9.56280571,11.8247414 9.77988484,10.4146766 10.2263033,8.76156826 L14.5727385,9.40793025 L12.7458809,16.3276601 Z" id="路径-70备份" fill="#FFA739" transform="translate(12.073656, 12.544614) rotate(-30.000000) translate(-12.073656, -12.544614) "></path>
                    </g>
                    <path d="M13.4801418,26.4055304 C13.8869918,27.092924 28.5183883,36.2297621 32.9661741,37.8343363 C35.9313646,38.9040524 35.9313646,40.9535676 32.9661741,43.9828817 C22.927489,38.9036169 16.6199799,35.2075683 14.0436468,32.8947359 C13.2957025,32.2232894 10.5143673,31.3837216 10.0031815,30.7337327 C8.1349954,29.3851032 6.19649192,29.1130508 5.43669503,28.8529587 C4.67689814,28.5928666 4.47378042,27.9436926 5.43669503,27.9436926 C6.0786381,27.9436926 6.67518425,28.0105345 7.22633348,28.1442184 C6.85232172,27.9396558 6.33323802,27.6973538 5.66908238,27.4173125 C4.67284892,26.9972504 4.49537079,26.4724317 4.64120761,26.2214804 C4.84382784,25.872818 5.10312087,25.872818 5.97743211,26.2214804 C6.65945498,26.493461 7.26881963,26.6195407 7.80552606,26.5997193 C6.23676379,25.3923401 5.62739914,24.552216 5.97743211,24.0793469 C6.50248158,23.3700434 8.45774245,25.5611817 8.71832358,25.3493904 C8.97890471,25.1375992 7.93697023,24.0134365 7.57088409,23.3700434 C7.20479794,22.7266502 7.81177334,21.7323223 8.71832358,22.9806798 C9.3226904,23.812918 10.1791235,24.6024883 11.287623,25.3493904 C11.0624431,24.0636173 11.1916462,23.2740471 11.6752322,22.9806798 C12.4006112,22.5406288 12.5031684,22.9013227 12.3972793,23.3700434 C12.2913903,23.838764 13.0732918,25.7181368 13.4801418,26.4055304 Z" id="路径-64" fill="#FFEEE3" transform="translate(19.893257, 33.182882) rotate(-10.000000) translate(-19.893257, -33.182882) "></path>
                    <path d="M11.8657764,60.8360844 C12.2726331,61.523331 26.9056189,70.6574191 31.3539891,72.261348 C34.3195692,73.3306338 34.3193921,75.3798158 31.3534577,78.4088939 C21.3135794,73.3313226 15.0053642,69.63642 12.4288121,67.3241863 C11.6808043,66.6529136 8.89908944,65.8137228 8.38787674,65.1638837 C6.51950343,63.8156349 4.58070829,63.5437943 3.82081034,63.2838102 C3.06091239,63.0238261 2.85781776,62.3747752 3.82088893,62.3746919 C4.46293638,62.3746364 5.05957374,62.4414159 5.61080102,62.5750304 C5.23674613,62.3705334 4.71759898,62.1283157 4.05335956,61.8483772 C3.05700043,61.4284696 2.87953881,60.9037516 3.02542103,60.6528284 C3.22810433,60.3042052 3.48743953,60.3041828 4.36186279,60.6527129 C5.04397303,60.9245904 5.65342586,61.0505968 6.19022127,61.0307323 C4.62130829,59.823685 4.01191718,58.9837501 4.36204793,58.5109277 C4.88724407,57.801694 6.84263346,59.9923071 7.10327526,59.7805278 C7.36391707,59.5687484 6.32191035,58.4448585 5.95582029,57.8016016 C5.58973023,57.1583447 6.19689026,56.164126 7.10347999,57.4122021 C7.70787315,58.2442529 8.56437729,59.0336207 9.67299241,59.7803056 C9.44788707,58.494761 9.5771794,57.705308 10.0608694,57.4119465 C10.7864044,56.9719043 10.8889471,57.3325307 10.7830003,57.8011844 C10.6770534,58.269838 11.4589197,60.1488377 11.8657764,60.8360844 Z" id="路径-64" fill="#FFEEE3" transform="translate(18.279340, 67.611733) scale(-1, -1) rotate(130.000000) translate(-18.279340, -67.611733) "></path>
                    <path d="M38.0077994,55.2809738 C38.5246611,53.1347151 37.8431251,50.788084 35.9631916,48.2410807 C29.4875129,42.0425703 22.401066,37.8046104 14.703851,35.5272011 C13.3200468,35.5272011 12.6223862,34.9553367 12.6108694,33.8116077 C12.7766931,31.7051388 13.1819789,30.0379138 13.8267268,28.8099326 C14.7938485,26.9679609 16.3969162,28.1121067 20.0334234,28.4243368 C26.4368835,28.9741372 35.2612033,33.4351181 46.5063828,41.8072794 C40.3237989,52.9360011 37.4909377,57.4272326 38.0077994,55.2809738 Z" id="路径-63" fill="#FFA739"></path>
                    <g id="编组-20" transform="translate(69.072767, 109.026173)">
                        <path d="M-4.4408921e-15,3.99414727 C1.93990267,4.88237852 3.19781741,5.47669434 3.77374422,5.77709473 C4.63763443,6.22769531 5.22785931,9.72211209 4.63763443,11.2319033 C4.04740956,12.7416946 4.93525254,13.8184869 5.44306866,13.8184869 C5.95088478,13.8184869 9.39562646,5.19131217 8.84242985,3.99414727 C8.28923323,2.79698237 7.47515488,3.55944325 5.84007841,2.79698237 C4.75002743,2.28867511 3.36084856,1.35634766 1.67254181,1.95399252e-14 L-4.4408921e-15,3.99414727 Z" id="路径-68" fill="#FFD3CE"></path>
                        <path d="M5.9308701,15.9312782 C5.9308701,15.6654078 7.63116893,11.2752943 11.0317666,2.7609375 L12.4022477,3.22692333 L7.29303187,16.3092292 C6.38492402,16.3231322 5.9308701,16.1971485 5.9308701,15.9312782 Z" id="路径-69" fill="#FFA739"></path>
                        <path d="M7.10194821,15.4361154 C4.88314555,14.7750885 3.77374422,13.8597282 3.77374422,12.6900343 C3.77374422,11.5203404 4.0121663,10.1046335 4.48901047,8.44291378 L8.95084634,9.04560384 L7.10194821,15.4361154 Z" id="路径-70" fill="#FFA739"></path>
                    </g>
                    <path d="M42.6919307,75.3190762 C44.0587956,98.6787231 52.6354422,112.136498 68.4218704,115.692402 C70.5667385,114.490862 71.6391725,112.226679 71.6391725,108.899853 C64.0866109,101.525646 59.9078079,95.5991547 59.1027636,91.120378 C58.2977192,86.6416014 58.7552937,86.5189691 60.4754869,90.7524812 C65.1606475,100.795994 72.0856711,105.240703 81.250558,104.086609 C82.2711521,101.67981 83.6527421,98.5884393 85.3953281,94.8124958 C77.794299,91.2921072 73.2026576,87.3783075 71.620404,83.0710966 C69.4033607,77.0358611 69.2641106,72.1973948 67.7445586,68.6062448 C67.4802204,67.9815355 66.1466789,64.303487 65.8511854,63.7789625 C63.102582,58.8999725 55.3828304,62.7466771 42.6919307,75.3190762 Z" id="路径-65" fill="#33308E"></path>
                    <path d="M57.0889281,11.9485239 C49.3808053,16.1268829 43.3847768,17.7634436 39.1008427,16.8582061 C32.6749416,15.5003499 30.9943702,8.94254927 30.9943702,7.09644854 C30.9943702,5.25034781 32.506068,5.05408471 32.864758,5.41696416 C33.9428497,6.50764767 35.5715419,8.06450846 35.9407423,7.09644854 C35.9407423,2.73328666 36.8581669,0.78973696 38.7431198,0.106541105 C39.2008027,-0.0593448017 40.2251539,-0.234963398 40.2251539,1.27965674 C40.2251539,2.79427687 40.7415002,4.13113522 42.0744831,4.57974541 C43.6088363,4.57974541 42.7513671,1.27965674 45.8625208,1.27965674 C46.8149256,1.27965674 46.8149256,1.99715265 46.2990374,2.90166293 C45.5913118,4.14252325 45.9224929,5.33628819 46.9248016,5.41696416 C52.9116471,5.89884627 56.2996892,8.07603285 57.0889281,11.9485239 Z" id="路径-66" fill="#33308E"></path>
                    <path d="M47.655919,37.1551086 C46.024939,37.38134 42.0804911,38.7582762 38.6665708,39.7828509 C35.2526505,40.8074255 35.6346219,64.7426691 40.1459944,73.2981444 C44.6573669,81.8536197 68.7864885,63.9474072 68.7864885,62.0047572 C68.7864885,61.093978 63.0345952,58.3282168 60.3750901,52.7447621 C57.361994,46.4189664 57.0297805,37.4967759 54.3388733,37.1551086 C50.8896065,36.7171516 49.2868989,36.9288772 47.655919,37.1551086 Z" id="路径-62" fill="#FFCB77"></path>
                    <path d="M41.9959468,77.1063095 C42.7751108,73.8479299 54.4517456,73.2822357 39.9443181,69.9819146 C25.4368907,66.6815936 20.9648509,63.0602072 14.6571881,57.9523626 C13.4022258,56.9361141 13.5894804,55.5869903 15.218952,53.9049912 C16.2387662,52.7585141 17.0725082,51.5638131 17.720178,50.3208882 C18.6916829,48.4565009 20.2143504,49.9353633 20.8375462,50.320256 C23.0799824,51.7052094 37.1747344,60.2388065 47.969159,58.0319123 C49.0662662,57.8076113 49.5475027,59.6007486 49.4128685,63.4113241 C43.9488113,74.7135674 41.4765041,79.2785625 41.9959468,77.1063095 Z" id="路径-63" fill="#FFCB77" transform="translate(31.636558, 63.515665) scale(-1, -1) rotate(126.000000) translate(-31.636558, -63.515665) "></path>
                    <path d="M50.9387771,15.0076904 L52.285619,25.1807371 L54.6921598,24.3706348 C55.8101563,24.8997601 56.1376867,25.7089658 55.6747511,26.798252 C54.9803478,28.4321813 53.9158711,28.7591489 53.5309662,29.2874575 C52.716775,30.4049912 51.2577257,32.9025335 50.9387771,33.3 C55.3810563,32.1838721 58.8702666,26.8397326 60.1879244,22.8327123 C61.8904557,17.6552851 59.0466904,11.8289918 54.6921598,10.0803326 C48.6692684,7.66170588 47.4181409,9.30415848 50.9387771,15.0076904 Z" id="路径-67" fill="#33308E"></path>
                    <path d="M43.6167787,35.2569332 C43.9403573,37.5388722 43.9403573,39.2323132 43.6167787,40.3372561 C43.1314109,41.9946705 49.8531376,41.7394183 50.7902417,39.3886839 C50.1831307,37.0007731 50.1831307,34.9712118 50.7902417,33.3 L43.6167787,35.2569332 Z" id="路径-71" fill="#FFD3CE"></path>
                </g>
                <path d="M81.5,123 C85,115.613584 78.3799039,102.920013 71.7801855,105.29047 C65.1804672,107.660927 68.742191,111.548843 61.7163841,115.613584 C54.6905772,119.678324 54.2355527,123.756564 55.6372647,129.310514 C56.5717393,133.013147 58.7568083,136.909643 62.1924715,141 C62.7743078,139.389141 63.065226,138.278413 63.065226,137.667818 C62.1932438,135.814431 59.3655184,130.283066 60.2053282,130.656835 C61.1677992,131.085196 62.6575193,131.947514 63.065226,130.656835 C63.8218023,128.261737 61.7340649,127.180808 64.3858721,123.477122 C67.0376794,119.773436 70.318303,118.556336 74.2227106,118.556336 C78.1271183,118.556336 78.9540371,120.172905 81.5,123 Z" id="路径-72" fill="#33308E"></path>
                <path d="M63,148.392934 C64.5637307,152.542256 65.6917935,157.099114 74.3458968,155.762507 C80.1152989,154.871435 83,152.414911 83,148.392934 C81.4647893,150.073105 80.1253612,150.073105 78.9817155,148.392934 C77.8380698,146.712763 77.8380698,145.658422 78.9817155,145.229911 C74.724729,145.229911 71.5027732,144.81994 69.3158482,144 C67.1289232,143.18006 65.0236405,140.901165 63,137.163317 C62.4616476,138.818194 62.1924715,140.097089 62.1924715,141 C63,144 63,146.454149 63,148.392934 Z" id="路径-73" fill="#FFE1CD"></path>
                <path d="M75.1631598,307.629842 C69.1995896,305.164143 61.0510691,310.312075 59.1484004,316.570619 C57.8799545,320.742982 64.7429981,321.967651 79.737531,320.244626 C80.6636637,313.478569 79.1388733,309.273641 75.1631598,307.629842 Z" id="路径-74" fill="#D8F2FF"></path>
                <polygon id="路径-75" fill="#D8F2FF" points="46 320.317851 81 321 80.2621411 317 46 317"></polygon>
                <path d="M39,219.038204 C32.3333333,228.210651 31,238.664063 35,250.398438" id="路径-99" stroke="#FFFFFF" stroke-width="2" opacity="0.5" stroke-linecap="round"></path>
                <path d="M27,229.683818 C25.3838913,233.040153 25.3838913,238.415078 27,245.808594" id="路径-100" stroke="#FFFFFF" stroke-width="2" opacity="0.5" stroke-linecap="round"></path>
                <path d="M167.15625,242.171875 C171.38737,248.238932 171.38737,254.45638 167.15625,260.824219" id="路径-101" stroke="#FFFFFF" stroke-width="2" opacity="0.5" stroke-linecap="round"></path>
                <path d="M174.982422,245.808594 C176.537109,249.564453 176.537109,252.79069 174.982422,255.487305" id="路径-102" stroke="#FFFFFF" stroke-width="2" opacity="0.5" stroke-linecap="round"></path>
            </g>
        </g>
    </g>
</svg>